<svg xmlns="http://www.w3.org/2000/svg" viewBox="0 0 32 32" width="32" height="32">
  <defs>
    <linearGradient id="g" x1="0%" y1="0%" x2="100%" y2="100%">
      <stop offset="0%" stop-color="#2997FF"/>
      <stop offset="100%" stop-color="#BF5AF2"/>
    </linearGradient>
  </defs>
  <rect width="32" height="32" rx="6" fill="#0d1117"/>
  <path d="M16 6c-4.4 0-8 3.1-8 7 0 2.3 1.2 4.3 3.2 5.6L10 22l3.6-1.8c.8.2 1.6.3 2.4.3 4.4 0 8-3.1 8-7s-3.6-7-8-7zm-3 8a1 1 0 1 1 0-2 1 1 0 0 1 0 2zm3 0a1 1 0 1 1 0-2 1 1 0 0 1 0 2zm3 0a1 1 0 1 1 0-2 1 1 0 0 1 0 2z" fill="url(#g)"/>
</svg>
